<svg width="96" height="96" viewBox="0 0 96 96" fill="none" xmlns="http://www.w3.org/2000/svg">
  <rect x="14" y="16" width="68" height="64" rx="14" fill="#ffffff" />
  <rect x="14" y="16" width="68" height="22" rx="10" fill="#137FEC" />
  <rect x="24" y="12" width="10" height="16" rx="3" fill="#0B4C99" />
  <rect x="62" y="12" width="10" height="16" rx="3" fill="#0B4C99" />

  <!-- Calendar grid -->
  <g stroke="#D3E2F5" stroke-width="2">
    <line x1="22" y1="40" x2="74" y2="40" />
    <line x1="22" y1="52" x2="74" y2="52" />
    <line x1="22" y1="64" x2="74" y2="64" />
    <line x1="22" y1="76" x2="74" y2="76" />

    <line x1="32" y1="40" x2="32" y2="76" />
    <line x1="44" y1="40" x2="44" y2="76" />
    <line x1="56" y1="40" x2="56" y2="76" />
    <line x1="68" y1="40" x2="68" y2="76" />
  </g>

  <!-- AI spark -->
  <circle cx="70" cy="28" r="10" fill="#ffffff" />
  <path d="M70 20L72 25L78 26L73.5 29.5L74.5 35L70 32.2L65.5 35L66.5 29.5L62 26L68 25Z" fill="#FFB800"/>

  <!-- AC monogram -->
  <text x="24" y="30" font-family="system-ui, -apple-system, BlinkMacSystemFont, 'Segoe UI', sans-serif" font-size="11" font-weight="700" fill="#FFFFFF">
    AC
  </text>
</svg>

